{"asset":{"version":"2.0","generator":"HomeScape AI normalized demo asset pipeline"},"scene":0,"scenes":[{"name":"Scene","nodes":[0,1,2,3,4]}],"nodes":[{"name":"Top","mesh":0,"translation":[0,0.3496,0],"scale":[1.2,0.0608,0.62]},{"name":"Leg-1-1","mesh":1,"translation":[-0.408,0.1596,-0.1984],"scale":[0.08,0.3192,0.0744]},{"name":"Leg-11","mesh":1,"translation":[-0.408,0.1596,0.1984],"scale":[0.08,0.3192,0.0744]},{"name":"Leg1-1","mesh":1,"translation":[0.408,0.1596,-0.1984],"scale":[0.08,0.3192,0.0744]},{"name":"Leg11","mesh":1,"translation":[0.408,0.1596,0.1984],"scale":[0.08,0.3192,0.0744]}],"meshes":[{"name":"cube-material-0","primitives":[{"attributes":{"POSITION":0,"NORMAL":1},"indices":2,"material":0}]},{"name":"cube-material-1","primitives":[{"attributes":{"POSITION":0,"NORMAL":1},"indices":2,"material":1}]}],"materials":[{"name":"Top","pbrMetallicRoughness":{"baseColorFactor":[0.62,0.42,0.23,1],"metallicFactor":0,"roughnessFactor":0.72}},{"name":"Leg","pbrMetallicRoughness":{"baseColorFactor":[0.22,0.16,0.1,1],"metallicFactor":0,"roughnessFactor":0.65}}],"buffers":[{"byteLength":648,"uri":"data:application/octet-stream;base64,"}],"bufferViews":[{"buffer":0,"byteOffset":0,"byteLength":288,"target":34962},{"buffer":0,"byteOffset":288,"byteLength":288,"target":34962},{"buffer":0,"byteOffset":576,"byteLength":72,"target":34963}],"accessors":[{"bufferView":0,"componentType":5126,"count":24,"type":"VEC3","min":[-0.5,-0.5,-0.5],"max":[0.5,0.5,0.5]},{"bufferView":1,"componentType":5126,"count":24,"type":"VEC3"},{"bufferView":2,"componentType":5123,"count":36,"type":"SCALAR"}]}