{"asset":{"version":"2.0","generator":"HomeScape AI normalized demo asset pipeline"},"scene":0,"scenes":[{"name":"Scene","nodes":[0,1,2,3,4,5,6,7]}],"nodes":[{"name":"Seat","mesh":0,"translation":[0,0.2788,-0.0276],"scale":[1.87,0.246,0.7176]},{"name":"Back","mesh":0,"translation":[0,0.574,0.3864],"scale":[1.936,0.492,0.1472]},{"name":"ArmL","mesh":0,"translation":[-1.0175,0.3936,0],"scale":[0.165,0.3936,0.92]},{"name":"ArmR","mesh":0,"translation":[1.0175,0.3936,0],"scale":[0.165,0.3936,0.92]},{"name":"Leg-1-1","mesh":1,"translation":[-0.968,0.0738,-0.38],"scale":[0.08,0.1476,0.08]},{"name":"Leg-11","mesh":1,"translation":[-0.968,0.0738,0.38],"scale":[0.08,0.1476,0.08]},{"name":"Leg1-1","mesh":1,"translation":[0.968,0.0738,-0.38],"scale":[0.08,0.1476,0.08]},{"name":"Leg11","mesh":1,"translation":[0.968,0.0738,0.38],"scale":[0.08,0.1476,0.08]}],"meshes":[{"name":"cube-material-0","primitives":[{"attributes":{"POSITION":0,"NORMAL":1},"indices":2,"material":0}]},{"name":"cube-material-1","primitives":[{"attributes":{"POSITION":0,"NORMAL":1},"indices":2,"material":1}]}],"materials":[{"name":"Fabric","pbrMetallicRoughness":{"baseColorFactor":[0.52,0.49,0.44,1],"metallicFactor":0,"roughnessFactor":0.92}},{"name":"Leg","pbrMetallicRoughness":{"baseColorFactor":[0.16,0.11,0.07,1],"metallicFactor":0,"roughnessFactor":0.7}}],"buffers":[{"byteLength":648,"uri":"data:application/octet-stream;base64,"}],"bufferViews":[{"buffer":0,"byteOffset":0,"byteLength":288,"target":34962},{"buffer":0,"byteOffset":288,"byteLength":288,"target":34962},{"buffer":0,"byteOffset":576,"byteLength":72,"target":34963}],"accessors":[{"bufferView":0,"componentType":5126,"count":24,"type":"VEC3","min":[-0.5,-0.5,-0.5],"max":[0.5,0.5,0.5]},{"bufferView":1,"componentType":5126,"count":24,"type":"VEC3"},{"bufferView":2,"componentType":5123,"count":36,"type":"SCALAR"}]}