{"asset":{"version":"2.0","generator":"HomeScape AI normalized demo asset pipeline"},"scene":0,"scenes":[{"name":"Scene","nodes":[0,1,2]}],"nodes":[{"name":"Base","mesh":0,"translation":[0,0.028875,0],"scale":[0.42,0.05775,0.42]},{"name":"Stem","mesh":0,"translation":[0,0.70125,0],"scale":[0.0252,1.287,0.0252]},{"name":"Shade","mesh":1,"translation":[0,1.4685,0],"scale":[0.3276,0.363,0.3276]}],"meshes":[{"name":"cube-material-0","primitives":[{"attributes":{"POSITION":0,"NORMAL":1},"indices":2,"material":0}]},{"name":"cube-material-1","primitives":[{"attributes":{"POSITION":0,"NORMAL":1},"indices":2,"material":1}]}],"materials":[{"name":"Metal","pbrMetallicRoughness":{"baseColorFactor":[0.08,0.08,0.07,1],"metallicFactor":0.55,"roughnessFactor":0.42}},{"name":"Shade","pbrMetallicRoughness":{"baseColorFactor":[0.62,0.56,0.45,1],"metallicFactor":0,"roughnessFactor":0.84}}],"buffers":[{"byteLength":648,"uri":"data:application/octet-stream;base64,"}],"bufferViews":[{"buffer":0,"byteOffset":0,"byteLength":288,"target":34962},{"buffer":0,"byteOffset":288,"byteLength":288,"target":34962},{"buffer":0,"byteOffset":576,"byteLength":72,"target":34963}],"accessors":[{"bufferView":0,"componentType":5126,"count":24,"type":"VEC3","min":[-0.5,-0.5,-0.5],"max":[0.5,0.5,0.5]},{"bufferView":1,"componentType":5126,"count":24,"type":"VEC3"},{"bufferView":2,"componentType":5123,"count":36,"type":"SCALAR"}]}