{"asset":{"version":"2.0","generator":"HomeScape AI normalized demo asset pipeline"},"scene":0,"scenes":[{"name":"Scene","nodes":[0,1,2,3]}],"nodes":[{"name":"Pot","mesh":0,"translation":[0,0.1705,0],"scale":[0.33,0.341,0.33]},{"name":"Trunk","mesh":1,"translation":[0,0.76725,0],"scale":[0.06,0.8525,0.06]},{"name":"CrownA","mesh":2,"translation":[0,1.178,0],"scale":[0.6,0.651,0.6]},{"name":"CrownB","mesh":2,"translation":[0,1.302,0],"scale":[0.432,0.496,0.432]}],"meshes":[{"name":"cube-material-0","primitives":[{"attributes":{"POSITION":0,"NORMAL":1},"indices":2,"material":0}]},{"name":"cube-material-1","primitives":[{"attributes":{"POSITION":0,"NORMAL":1},"indices":2,"material":1}]},{"name":"cube-material-2","primitives":[{"attributes":{"POSITION":0,"NORMAL":1},"indices":2,"material":2}]}],"materials":[{"name":"Pot","pbrMetallicRoughness":{"baseColorFactor":[0.5,0.35,0.22,1],"metallicFactor":0,"roughnessFactor":0.9}},{"name":"Trunk","pbrMetallicRoughness":{"baseColorFactor":[0.25,0.15,0.08,1],"metallicFactor":0,"roughnessFactor":0.9}},{"name":"Leaf","pbrMetallicRoughness":{"baseColorFactor":[0.18,0.4,0.2,1],"metallicFactor":0,"roughnessFactor":0.88}}],"buffers":[{"byteLength":648,"uri":"data:application/octet-stream;base64,"}],"bufferViews":[{"buffer":0,"byteOffset":0,"byteLength":288,"target":34962},{"buffer":0,"byteOffset":288,"byteLength":288,"target":34962},{"buffer":0,"byteOffset":576,"byteLength":72,"target":34963}],"accessors":[{"bufferView":0,"componentType":5126,"count":24,"type":"VEC3","min":[-0.5,-0.5,-0.5],"max":[0.5,0.5,0.5]},{"bufferView":1,"componentType":5126,"count":24,"type":"VEC3"},{"bufferView":2,"componentType":5123,"count":36,"type":"SCALAR"}]}