{"asset":{"version":"2.0","generator":"HomeScape AI normalized demo asset pipeline"},"scene":0,"scenes":[{"name":"Scene","nodes":[0,1,2,3,4,5,6,7]}],"nodes":[{"name":"Seat","mesh":0,"translation":[0,0.2856,-0.0282],"scale":[1.785,0.252,0.7332]},{"name":"Back","mesh":0,"translation":[0,0.588,0.3948],"scale":[1.848,0.504,0.1504]},{"name":"ArmL","mesh":0,"translation":[-0.97125,0.4032,0],"scale":[0.1575,0.4032,0.94]},{"name":"ArmR","mesh":0,"translation":[0.97125,0.4032,0],"scale":[0.1575,0.4032,0.94]},{"name":"Leg-1-1","mesh":1,"translation":[-0.924,0.0756,-0.39],"scale":[0.08,0.1512,0.08]},{"name":"Leg-11","mesh":1,"translation":[-0.924,0.0756,0.39],"scale":[0.08,0.1512,0.08]},{"name":"Leg1-1","mesh":1,"translation":[0.924,0.0756,-0.39],"scale":[0.08,0.1512,0.08]},{"name":"Leg11","mesh":1,"translation":[0.924,0.0756,0.39],"scale":[0.08,0.1512,0.08]}],"meshes":[{"name":"cube-material-0","primitives":[{"attributes":{"POSITION":0,"NORMAL":1},"indices":2,"material":0}]},{"name":"cube-material-1","primitives":[{"attributes":{"POSITION":0,"NORMAL":1},"indices":2,"material":1}]}],"materials":[{"name":"Fabric","pbrMetallicRoughness":{"baseColorFactor":[0.66,0.67,0.65,1],"metallicFactor":0,"roughnessFactor":0.92}},{"name":"Leg","pbrMetallicRoughness":{"baseColorFactor":[0.16,0.11,0.07,1],"metallicFactor":0,"roughnessFactor":0.7}}],"buffers":[{"byteLength":648,"uri":"data:application/octet-stream;base64,"}],"bufferViews":[{"buffer":0,"byteOffset":0,"byteLength":288,"target":34962},{"buffer":0,"byteOffset":288,"byteLength":288,"target":34962},{"buffer":0,"byteOffset":576,"byteLength":72,"target":34963}],"accessors":[{"bufferView":0,"componentType":5126,"count":24,"type":"VEC3","min":[-0.5,-0.5,-0.5],"max":[0.5,0.5,0.5]},{"bufferView":1,"componentType":5126,"count":24,"type":"VEC3"},{"bufferView":2,"componentType":5123,"count":36,"type":"SCALAR"}]}